<svg xmlns="http://www.w3.org/2000/svg" xmlns:xlink="http://www.w3.org/1999/xlink" width="611" height="124" viewBox="0 0 611 124">
    <defs>
        <path id="a" d="M.532.062h32.304v28.464H.532z"/>
        <path id="c" d="M0 .546h54.556v50.397H0z"/>
    </defs>
    <g fill="none" fill-rule="evenodd">
        <path fill="#FDD313" d="M457.917 106.446c.335.334.502.733.502 1.2v8.263c0 1.336-.116 2.444-.351 3.328-.235.887-.603 1.63-1.108 2.23a1.247 1.247 0 0 0-.15.174c-.034.05-.084.11-.152.176a5.034 5.034 0 0 1-2.744 1.426 18.314 18.314 0 0 1-3.145.275h-7.752c-2.465 0-4.55-.174-6.25-.523-1.699-.351-3.132-.908-4.298-1.672-1.902-1.266-3.37-2.946-4.403-5.043-1.034-2.098-1.55-4.461-1.55-7.092 0-2.494.516-4.792 1.555-6.888 1.034-2.097 2.503-3.762 4.405-4.993h.05c1.202-.764 2.63-1.324 4.284-1.672 1.65-.351 3.73-.526 6.235-.526h14.925a.345.345 0 0 1 .351.351c-.033.693-.153 1.477-.354 2.354-.2.874-.636 1.658-1.309 2.353a5.064 5.064 0 0 1-2.744 1.412 18.604 18.604 0 0 1-3.145.272h-7.173c-3.51 0-5.95.533-7.323 1.603-1.404 1.068-2.105 2.973-2.105 5.71 0 1.47.158 2.671.476 3.608.318.935.829 1.687 1.53 2.253.703.568 1.645.977 2.833 1.228 1.186.25 2.717.375 4.59.375h7.172v-4.042h-3.302a16.64 16.64 0 0 1-2.974-.278 4.578 4.578 0 0 1-2.575-1.383c-.933-.905-1.483-2.45-1.648-4.63a.34.34 0 0 1 .35-.351h16.089c.469 0 .87.167 1.208.502M487 105.413c.416-.423.622-.92.622-1.49 0-.574-.206-1.078-.622-1.515-.42-.44-.91-.657-1.477-.657h-14.55v4.243l14.55.05c.568 0 1.058-.21 1.477-.63zm7.724 15.46c.067.068.1.15.1.249 0 .134-.05.218-.148.25-.502.467-1.134.933-1.902 1.399-.768.465-1.634.698-2.601.698h-.048c-1.067 0-2.034-.3-2.9-.899-.869-.6-1.668-1.28-2.402-2.048l-7.55-7.839h-6.3v3.346c0 1.032-.11 2.073-.326 3.122-.218 1.047-.758 1.955-1.624 2.719a5.69 5.69 0 0 1-2.676 1.3c-1.017.198-1.91.315-2.675.349a.345.345 0 0 1-.352-.35V96.808c0-.466.168-.865.503-1.2.33-.332.732-.499 1.198-.499h21.003c1.2 0 2.333.234 3.4.7 1.067.466 2 1.1 2.802 1.897.8.798 1.43 1.732 1.9 2.795a8.41 8.41 0 0 1 .699 3.396 8.539 8.539 0 0 1-.625 3.27 8.867 8.867 0 0 1-1.725 2.698 8.754 8.754 0 0 1-2.601 1.896c-1 .483-2.068.775-3.2.872l8.05 8.24zM526.875 114.982c.698-.566 1.217-1.317 1.55-2.248.335-.932.502-2.13.502-3.593 0-1.4-.176-2.554-.526-3.472-.349-.915-.876-1.655-1.579-2.221-1.402-1.064-3.827-1.597-7.268-1.597H516.7c-3.443 0-5.848.533-7.219 1.597-1.405 1.065-2.103 2.961-2.103 5.693 0 1.464.157 2.661.473 3.593.318.931.828 1.682 1.53 2.248.7.567 1.638.972 2.806 1.223 1.168.248 2.673.373 4.513.373h2.905c1.804 0 3.292-.125 4.46-.373 1.17-.25 2.106-.656 2.81-1.223m3.751-17.725c1.903 1.233 3.37 2.896 4.403 4.993 1.034 2.095 1.55 4.394 1.55 6.89 0 2.595-.516 4.95-1.55 7.065-1.033 2.112-2.5 3.802-4.403 5.068-1.165.764-2.588 1.32-4.273 1.672-1.685.349-3.776.523-6.274.523h-3.853c-2.467 0-4.55-.174-6.25-.523-1.699-.351-3.134-.908-4.3-1.672-1.902-1.266-3.367-2.956-4.4-5.068-1.034-2.114-1.55-4.47-1.55-7.064 0-2.497.526-4.796 1.573-6.89 1.051-2.098 2.508-3.761 4.377-4.994h.05c1.202-.765 2.625-1.324 4.274-1.672 1.651-.35 3.728-.526 6.226-.526h3.853c2.498 0 4.575.177 6.224.526 1.648.348 3.091.907 4.323 1.672"/>
        <g transform="translate(540.949 94.997)">
            <mask id="b" fill="#fff">
                <use xlink:href="#a"/>
            </mask>
            <path fill="#FDD313" d="M32.486.062a.342.342 0 0 1 .35.352V14.29c0 2.598-.517 4.937-1.551 7.015-1.034 2.081-2.5 3.737-4.4 4.97-1.101.731-2.425 1.28-3.975 1.646-1.55.367-3.443.566-5.676.6h-.201c-2.467.033-4.549-.132-6.25-.5-1.701-.365-3.135-.931-4.3-1.696-1.9-1.233-3.36-2.895-4.377-4.993C1.089 19.235.566 16.889.532 14.29V.463c0-.1.033-.184.1-.25.132-.067.216-.1.25-.1.767.033 1.657.15 2.674.35 1.018.199 1.91.63 2.675 1.298.867.767 1.41 1.673 1.627 2.721.216 1.05.324 2.088.324 3.12v6.69c0 2.564.584 4.377 1.751 5.442.565.567 1.35 1.016 2.35 1.348 1 .334 2.25.518 3.75.55 1.801.032 3.276-.1 4.427-.4 1.148-.298 2.058-.731 2.725-1.297.699-.567 1.206-1.3 1.524-2.198.316-.899.477-2.062.477-3.496v-6.69c0-1.03.114-2.064.349-3.095.232-1.03.782-1.928 1.649-2.695a5.19 5.19 0 0 1 1.224-.824 7.173 7.173 0 0 1 1.403-.5c.48-.114.95-.198 1.4-.248.45-.05.873-.093 1.275-.127" mask="url(#b)"/>
        </g>
        <path fill="#FDD313" d="M602.862 105.413c.416-.423.625-.92.625-1.49 0-.574-.209-1.078-.625-1.515-.416-.44-.91-.657-1.474-.657h-15.053v4.243l15.053.05c.565 0 1.058-.21 1.474-.63m2.427-9.604a9.106 9.106 0 0 1 2.8 1.896 9.066 9.066 0 0 1 1.9 2.795 8.38 8.38 0 0 1 .698 3.396 8.713 8.713 0 0 1-2.549 6.192 9.168 9.168 0 0 1-2.775 1.897 8.222 8.222 0 0 1-3.376.697H586.335v3.346c0 1.032-.108 2.073-.323 3.122-.218 1.047-.76 1.955-1.628 2.719a5.672 5.672 0 0 1-2.675 1.3c-1.017.198-1.907.315-2.675.349a.337.337 0 0 1-.249-.1.333.333 0 0 1-.1-.25V96.808c0-.466.167-.865.5-1.2.333-.332.732-.499 1.201-.499h21.5c1.201 0 2.336.234 3.403.7"/>
        <g transform="translate(0 27.466)">
            <mask id="d" fill="#fff">
                <use xlink:href="#c"/>
            </mask>
            <path fill="#000" d="M13.972 13.49c-.74.778-1.11 1.673-1.11 2.688 0 1.015.37 1.898 1.11 2.646.739.745 1.61 1.12 2.616 1.12l22.001-.089c.118 0 .177.03.177.088 2.13 0 4.124.411 5.988 1.236a16.245 16.245 0 0 1 4.924 3.356 15.493 15.493 0 0 1 3.325 4.904c.8 1.853 1.198 3.842 1.198 5.96 0 2.12-.414 4.123-1.242 6.007a16.38 16.38 0 0 1-3.327 4.945c-1.39 1.412-3.03 2.532-4.922 3.356-1.894.825-3.904 1.236-6.032 1.236H.62a.598.598 0 0 1-.443-.177C.058 50.53 0 50.353 0 50.234c.058-1.18.251-2.538.577-4.074.325-1.535 1.078-2.891 2.261-4.074 1.36-1.358 2.853-2.183 4.48-2.48a26.594 26.594 0 0 1 4.747-.444h25.637c1.005 0 1.876-.367 2.617-1.106.738-.738 1.108-1.64 1.108-2.7 0-1.005-.37-1.862-1.108-2.57-.741-.708-1.612-1.064-2.617-1.064H15.524c-2.129 0-4.125-.411-5.988-1.24a16.133 16.133 0 0 1-4.922-3.366 15.361 15.361 0 0 1-3.327-4.959C.487 20.27.088 18.26.088 16.134c0-2.125.413-4.133 1.243-6.023A16.027 16.027 0 0 1 4.7 5.15 16.042 16.042 0 0 1 9.67 1.787C11.56.96 13.572.546 15.702.546h38.233c.178 0 .325.088.445.265.117.06.176.209.176.443-.059 1.183-.252 2.539-.577 4.074-.326 1.535-1.08 2.894-2.26 4.075a8.605 8.605 0 0 1-4.658 2.436 29.714 29.714 0 0 1-5.279.486H16.588c-1.006 0-1.877.39-2.616 1.166" mask="url(#d)"/>
        </g>
        <path fill="#000" d="M104.18 46.29c.74-.748 1.109-1.631 1.109-2.646 0-1.014-.37-1.91-1.11-2.687-.74-.776-1.61-1.166-2.616-1.166H74.861v7.53l26.702.089c1.005 0 1.876-.375 2.617-1.12m4.302-17.038a16.065 16.065 0 0 1 4.968 3.366 16.059 16.059 0 0 1 3.371 4.959 14.873 14.873 0 0 1 1.243 6.023c0 2.125-.4 4.134-1.199 6.024a15.39 15.39 0 0 1-3.327 4.958 16.134 16.134 0 0 1-4.922 3.366c-1.863.829-3.86 1.24-5.988 1.24H74.86v5.936c0 1.83-.192 3.676-.576 5.534-.386 1.86-1.345 3.47-2.883 4.83-1.361 1.18-2.943 1.946-4.746 2.3-1.805.354-3.386.563-4.746.622a.6.6 0 0 1-.443-.177.6.6 0 0 1-.179-.445V31.022c0-.825.297-1.532.888-2.125a2.9 2.9 0 0 1 2.13-.885h38.144c2.13 0 4.138.413 6.032 1.24M282.67 46.29c.74-.748 1.11-1.631 1.11-2.646 0-1.014-.37-1.91-1.11-2.687-.74-.776-1.611-1.166-2.617-1.166H254.24v7.53l25.814.089c1.006 0 1.877-.375 2.618-1.12zm13.707 27.425c.118.119.176.264.176.444 0 .234-.088.383-.266.441-.886.827-2.011 1.654-3.371 2.48-1.36.828-2.897 1.241-4.611 1.241h-.09c-1.893 0-3.608-.533-5.145-1.596a27.435 27.435 0 0 1-4.259-3.63l-13.394-13.907H254.24v5.936c0 1.83-.192 3.676-.576 5.534-.386 1.86-1.346 3.47-2.883 4.83-1.361 1.18-2.943 1.946-4.746 2.3-1.806.354-3.387.563-4.747.622a.597.597 0 0 1-.442-.177.599.599 0 0 1-.178-.445V31.022c0-.825.295-1.532.887-2.125a2.898 2.898 0 0 1 2.129-.885h37.258c2.129 0 4.139.413 6.032 1.24a16.07 16.07 0 0 1 4.967 3.366 16.018 16.018 0 0 1 3.372 4.959 14.853 14.853 0 0 1 1.241 6.023c0 2.067-.37 4.002-1.108 5.803a15.646 15.646 0 0 1-3.06 4.782 15.494 15.494 0 0 1-4.614 3.366 16.195 16.195 0 0 1-5.677 1.549l14.283 14.615zM362.96 28.189c.118.236.146.413.088.531-.058 1.183-.265 2.57-.621 4.163-.354 1.596-1.124 2.983-2.306 4.163-1.36 1.358-2.973 2.201-4.834 2.524a32.245 32.245 0 0 1-5.546.488H339.54v25.154a27.3 27.3 0 0 1-.578 5.535c-.383 1.86-1.344 3.47-2.881 4.828a10.083 10.083 0 0 1-4.748 2.303c-1.804.355-3.386.56-4.745.62-.238 0-.386-.06-.444-.177a.598.598 0 0 1-.178-.443v-37.82l-21.645-.088a.59.59 0 0 1-.443-.179.589.589 0 0 1-.177-.441c.117-1.24.354-2.644.709-4.21.355-1.562 1.122-2.936 2.307-4.118 1.3-1.356 2.867-2.197 4.701-2.522a31.952 31.952 0 0 1 5.59-.488h45.419c.119 0 .295.06.533.177M419.192 66.451c.116.06.177.207.177.445v.175c-.119 1.24-.356 2.644-.71 4.208-.356 1.564-1.123 2.938-2.305 4.117-1.363 1.359-2.96 2.203-4.793 2.526a31.405 31.405 0 0 1-5.5.488H373.24a2.907 2.907 0 0 1-2.129-.885 2.899 2.899 0 0 1-.886-2.129V28.632c0-.058.058-.207.177-.444.237-.116.383-.176.444-.176a89.5 89.5 0 0 1 2.261.22c.798.09 1.626.238 2.485.444a12.54 12.54 0 0 1 2.485.886c.797.384 1.55.872 2.26 1.46 1.539 1.36 2.5 2.969 2.883 4.83.384 1.858.577 3.674.577 5.446v24.89h34.952c.177 0 .326.087.444.263M470.25 54.14v-.796c0-4.487-1.008-7.706-3.018-9.655-1.063-1.004-2.468-1.785-4.213-2.346-1.745-.563-3.948-.871-6.61-.932-3.191-.116-5.808.088-7.849.62-2.04.532-3.682 1.3-4.924 2.304-1.183 1.004-2.071 2.303-2.662 3.896-.59 1.595-.886 3.663-.886 6.201v.709h30.161zm13.571 23.737c0 .237-.057.386-.176.444-.06.118-.207.177-.444.177-1.362-.059-2.944-.265-4.747-.62-1.805-.354-3.357-1.123-4.657-2.303-1.538-1.358-2.515-2.968-2.926-4.829a25.369 25.369 0 0 1-.622-5.534v-.177h-30.161v.265a27.36 27.36 0 0 1-.577 5.537c-.384 1.858-1.345 3.468-2.883 4.827-1.36 1.182-2.943 1.948-4.745 2.302-1.806.355-3.388.562-4.746.62-.061 0-.207-.058-.445-.176a.603.603 0 0 1-.177-.444V53.432c.059-4.606.99-8.768 2.795-12.49 1.802-3.718 4.391-6.67 7.762-8.856 2.011-1.298 4.376-2.271 7.096-2.922 2.72-.65 6.09-1.003 10.113-1.064h.267c4.435-.058 8.146.237 11.132.885 2.987.65 5.514 1.654 7.584 3.013 3.371 2.243 5.974 5.212 7.808 8.901 1.833 3.69 2.75 7.84 2.75 12.445v24.533zM504.54 66.628h27.954c1.003 0 1.873-.367 2.61-1.105.738-.74 1.106-1.64 1.106-2.702 0-1.004-.368-1.86-1.105-2.569-.738-.708-1.608-1.063-2.61-1.063H504.54v7.44zm29.5-20.591c.618-.679.927-1.492.927-2.437 0-1.003-.367-1.888-1.105-2.657-.737-.767-1.607-1.152-2.607-1.152H504.54v7.44h27.067c1-.117 1.812-.516 2.431-1.194zm13.702-2.437c0 3.19-.917 6.142-2.75 8.857 2.661 2.954 3.992 6.408 3.992 10.364 0 2.125-.414 4.133-1.242 6.024a16.02 16.02 0 0 1-3.371 4.958 16.057 16.057 0 0 1-4.967 3.366 14.908 14.908 0 0 1-6.032 1.24H493.984a2.909 2.909 0 0 1-2.13-.884 2.9 2.9 0 0 1-.886-2.128V31.022c0-.824.296-1.533.886-2.125.592-.59 1.3-.885 2.13-.885h38.145c2.129 0 4.14.413 6.033 1.24a16.091 16.091 0 0 1 4.967 3.366 16.004 16.004 0 0 1 3.37 4.96 14.842 14.842 0 0 1 1.243 6.022zM570.103 40.957c-.74.778-1.11 1.672-1.11 2.687s.37 1.898 1.11 2.646c.737.745 1.61 1.12 2.617 1.12l21.999-.088c.118 0 .178.03.178.088 2.13 0 4.125.41 5.986 1.235a16.244 16.244 0 0 1 4.925 3.357 15.496 15.496 0 0 1 3.327 4.903c.798 1.854 1.198 3.842 1.198 5.96 0 2.12-.416 4.123-1.242 6.007-.83 1.884-1.938 3.533-3.327 4.945-1.39 1.412-3.031 2.532-4.925 3.357-1.89.824-3.9 1.236-6.032 1.236h-38.055a.606.606 0 0 1-.445-.177c-.118-.237-.177-.414-.177-.533.059-1.179.252-2.538.578-4.073.323-1.536 1.077-2.892 2.26-4.074 1.362-1.36 2.853-2.184 4.481-2.482a26.604 26.604 0 0 1 4.747-.443h25.636c1.005 0 1.877-.366 2.617-1.106.737-.738 1.11-1.64 1.11-2.7 0-1.005-.373-1.862-1.11-2.57-.74-.708-1.612-1.064-2.617-1.064h-22.177c-2.13 0-4.125-.411-5.989-1.24a16.126 16.126 0 0 1-4.922-3.366 15.391 15.391 0 0 1-3.327-4.958c-.798-1.889-1.198-3.899-1.198-6.024s.414-4.132 1.242-6.023a16.047 16.047 0 0 1 3.371-4.959 16.03 16.03 0 0 1 4.967-3.365c1.894-.828 3.903-1.241 6.032-1.241h38.235c.177 0 .325.088.444.265.116.06.177.209.177.443-.06 1.183-.251 2.54-.577 4.074-.326 1.536-1.08 2.894-2.261 4.075a8.61 8.61 0 0 1-4.658 2.436 29.714 29.714 0 0 1-5.278.486H572.72c-1.007 0-1.88.39-2.617 1.166"/>
        <path fill="#FDD313" d="M214.707 51.934c2.264-3.298 3.96-6.538 4.964-9.6-.825.2-1.675.338-2.563.338-.55 0-1.077-.083-1.604-.162-.623 2.24-1.698 4.609-3.148 7.037a90.98 90.98 0 0 0-6.307-5.588 28.534 28.534 0 0 1 1.31 6.192 72.482 72.482 0 0 1 2.754 2.774 55.13 55.13 0 0 1-2.852 3.589 28.756 28.756 0 0 1-1.29 5.629c2.333-2.266 4.432-4.562 6.258-6.849 7.528 8.867 10.605 17.674 7.13 23.48-3.362 5.622-12.104 7.19-22.984 5.098 1.31-3.37 2.418-7.112 3.292-11.134a29.308 29.308 0 0 1-4.49 3.928c-.77 2.282-1.633 4.416-2.59 6.349a73.716 73.716 0 0 1-6.528-2.005 29.11 29.11 0 0 1-5.772.955c3.609 1.625 7.17 2.99 10.623 4.062-1.37 2.236-2.869 4.145-4.48 5.62a10.689 10.689 0 0 1 2.32 5.214c2.314-2.494 4.406-5.79 6.214-9.693 14.357 3.637 26.24 2.132 30.56-5.09 4.435-7.414-.23-18.976-10.817-30.144M149.325 27.46c2.273-.636 4.934-.885 7.839-.82-.667 2.618-1.215 5.389-1.663 8.259a29.317 29.317 0 0 1 4.01-4.115 65.826 65.826 0 0 1 1.087-3.884c1.232.129 2.49.305 3.79.541a28.948 28.948 0 0 1 5.737-2.378c-2.85-.802-5.613-1.409-8.251-1.812 3.845-9.838 9.675-16.114 16.202-16.114 6.547 0 12.39 6.315 16.234 16.2-2.473.4-5.05.97-7.704 1.714 2 .592 3.909 1.399 5.708 2.386a51.369 51.369 0 0 1 3.257-.484c.336 1.069.657 2.16.948 3.29a29.48 29.48 0 0 1 3.996 3.845c-.426-2.578-.922-5.082-1.526-7.45 3.072-.112 5.861.144 8.25.796.68-1.509 1.71-2.807 2.967-3.853-3.474-.935-7.648-1.169-12.287-.724C193.65 9.085 186.36 0 178.076 0c-8.275 0-15.56 9.067-19.83 22.817-4.475-.382-8.509-.134-11.873.787 1.251 1.05 2.278 2.347 2.952 3.856M165.332 86.172c3.58-1.092 7.284-2.507 11.035-4.196-.232-.015-.457-.002-.69-.022a28.77 28.77 0 0 1-5.108-.927 72.977 72.977 0 0 1-6.935 2.113c-1.053-2.105-2-4.442-2.827-6.965a29.559 29.559 0 0 1-4.483-4.172c.907 4.345 2.085 8.371 3.492 11.973-10.656 1.953-19.184.337-22.497-5.2-3.473-5.808-.397-14.614 7.13-23.48 1.821 2.28 3.911 4.567 6.234 6.825a28.58 28.58 0 0 1-1.262-5.604 55.702 55.702 0 0 1-2.854-3.592 71.238 71.238 0 0 1 2.794-2.812 28.82 28.82 0 0 1 1.295-6.174 91.16 91.16 0 0 0-6.332 5.608c-1.452-2.433-2.53-4.805-3.152-7.05-.566.092-1.136.174-1.73.174-.836 0-1.64-.115-2.422-.294 1.006 3.05 2.697 6.275 4.951 9.558-10.587 11.168-15.25 22.728-10.816 30.143 4.274 7.144 15.945 8.703 30.095 5.216 1.794 3.846 3.865 7.1 6.154 9.567a10.692 10.692 0 0 1 2.32-5.215c-1.576-1.442-3.045-3.301-4.392-5.474M139.443 39.645c4.31 0 7.802-3.488 7.802-7.79s-3.493-7.79-7.802-7.79c-4.31 0-7.803 3.488-7.803 7.79s3.493 7.79 7.803 7.79M217.108 39.645c4.31 0 7.802-3.488 7.802-7.79s-3.493-7.79-7.802-7.79c-4.31 0-7.802 3.488-7.802 7.79s3.493 7.79 7.802 7.79M178.077 90.667c-4.31 0-7.802 3.488-7.802 7.79s3.493 7.79 7.802 7.79c4.31 0 7.803-3.488 7.803-7.79s-3.494-7.79-7.803-7.79"/>
        <path fill="#000" fill-rule="nonzero" d="M178.813 26.277c-14.945 0-27.087 12.142-27.087 27.087s12.142 27.087 27.087 27.087S205.9 68.31 205.9 53.364s-12.142-27.087-27.087-27.087zm.934 7.887l9.444-3.736c1.038.52 2.076 1.038 3.114 1.66.934.623 1.868 1.35 2.802 2.076l.104.104c.415.311.83.727 1.141 1.038l.104.104 1.142 1.141.103.104c.312.311.623.727.935 1.142.103.104.103.207.207.311l.934 1.245-1.868 7.992-9.237 3.113-8.925-7.16v-9.134zm-20.964 3.84c.104-.103.104-.207.208-.311.311-.415.622-.727.934-1.142l.103-.103c.416-.416.727-.83 1.142-1.142l.104-.104c.415-.311.726-.726 1.141-1.038l.104-.103c.83-.727 1.765-1.453 2.802-2.076.934-.623 1.972-1.142 3.114-1.66l9.444 3.736v9.132l-8.925 7.161-9.237-3.113-1.868-7.991.934-1.246zm-1.038 29.267c-.311-.415-.519-.83-.726-1.245l-.104-.104c-.208-.415-.519-.83-.726-1.246-.416-.934-.83-1.868-1.142-2.802-.208-.415-.311-.934-.415-1.349v-.207c-.104-.416-.208-.83-.312-1.35v-.103c-.207-1.038-.415-2.076-.518-3.01l5.5-6.642 9.133 3.01 2.698 10.69-4.359 5.81-9.029-1.452zm27.087 10.69c-.415.103-.934.207-1.349.31h-.207c-.415.105-.83.105-1.142.208h-.311c-.415 0-.727.104-1.142.104H177.36c-.415 0-.83-.104-1.141-.104-.83-.103-1.661-.207-2.595-.415l-5.293-8.406 4.255-5.708h12.558l4.359 5.812-4.67 8.199zm18.681-19.2v.104c-.104.415-.207.934-.311 1.349v.207c-.104.415-.311.934-.415 1.35-.312.934-.727 1.868-1.142 2.802-.207.415-.415.83-.726 1.245l-.104.104c-.208.415-.519.83-.727 1.245l-8.925 1.453-4.359-5.812 2.699-10.585 9.133-3.01 5.5 6.642c-.208.934-.415 1.972-.623 2.906z"/>
        <path fill="#000" fill-rule="nonzero" d="M178.813 82.423c-16.086 0-29.059-13.076-29.059-29.059 0-15.982 13.077-29.059 29.06-29.059 15.982 0 29.058 13.077 29.058 29.06 0 15.982-12.973 29.058-29.059 29.058zm0-55.316c-14.426 0-26.257 11.728-26.257 26.257 0 14.426 11.728 26.257 26.257 26.257 14.53 0 26.257-11.727 26.257-26.257 0-14.426-11.727-26.257-26.257-26.257z"/>
    </g>
</svg>
